<?xml version="1.0" encoding="UTF-8" standalone="no"?>
<!-- Created with Inkscape (http://www.inkscape.org/) -->

<svg
   xmlns:dc="http://purl.org/dc/elements/1.1/"
   xmlns:cc="http://creativecommons.org/ns#"
   xmlns:rdf="http://www.w3.org/1999/02/22-rdf-syntax-ns#"
   xmlns:svg="http://www.w3.org/2000/svg"
   xmlns="http://www.w3.org/2000/svg"
   xmlns:sodipodi="http://sodipodi.sourceforge.net/DTD/sodipodi-0.dtd"
   xmlns:inkscape="http://www.inkscape.org/namespaces/inkscape"
   width="210mm"
   height="297mm"
   id="svg2"
   version="1.1"
   inkscape:version="0.48.3.1 r9886"
   sodipodi:docname="icons.svg">
  <defs
     id="defs4" />
  <sodipodi:namedview
     id="base"
     pagecolor="#ffffff"
     bordercolor="#666666"
     borderopacity="1.0"
     inkscape:pageopacity="0.0"
     inkscape:pageshadow="2"
     inkscape:zoom="1.3301982"
     inkscape:cx="121.42857"
     inkscape:cy="932.90655"
     inkscape:document-units="px"
     inkscape:current-layer="layer1"
     showgrid="false"
     inkscape:window-width="1728"
     inkscape:window-height="921"
     inkscape:window-x="410"
     inkscape:window-y="268"
     inkscape:window-maximized="0" />
  <metadata
     id="metadata7">
    <rdf:RDF>
      <cc:Work
         rdf:about="">
        <dc:format>image/svg+xml</dc:format>
        <dc:type
           rdf:resource="http://purl.org/dc/dcmitype/StillImage" />
        <dc:title />
      </cc:Work>
    </rdf:RDF>
  </metadata>
  <g
     inkscape:label="Ebene 1"
     inkscape:groupmode="layer"
     id="layer1">
    <path
       d="m 81.451435,47.885404 -39.71427,39.714277 m 0,-39.714277 39.71427,39.714277 m 27.285725,-19.85714 c 0,26.03628 -21.106585,47.142859 -47.142865,47.142859 -26.03628,0 -47.14285,-21.106579 -47.14285,-47.142859 0,-26.036277 21.10657,-47.142853 47.14285,-47.142853 26.03628,0 47.142865,21.106576 47.142865,47.142853 z"
       style="fill:none;stroke:#000000;stroke-width:8;stroke-linecap:round;stroke-linejoin:miter;stroke-miterlimit:4;stroke-opacity:1;stroke-dasharray:none"
       id="path3793"
       inkscape:connector-curvature="0"
       sodipodi:nodetypes="ccccsssss" />
    <path
       id="rect4241"
       style="fill:none;stroke:#000000;stroke-width:4.12071228;stroke-linecap:round;stroke-linejoin:round;stroke-miterlimit:4;stroke-opacity:1"
       d="m 238.03158,30.844083 -34.78125,9.875 0,0.25 34.78125,13.4375 0,-23.5625 z m -7.85745,10.984542 c 27.30327,0 49.43694,22.133672 49.43694,49.43694 0,27.303265 -22.13367,49.436935 -49.43694,49.436935 -27.30327,0 -49.43694,-22.13367 -49.43694,-49.436937 0,0 0,-10e-7 0,-10e-7" />
    <path
       sodipodi:nodetypes="ccsssss"
       inkscape:connector-curvature="0"
       id="path2984"
       style="fill:none;stroke:#000000;stroke-width:8;stroke-linecap:round;stroke-linejoin:miter;stroke-miterlimit:4;stroke-opacity:1;stroke-dasharray:none"
       d="m 84.388275,210.34884 -47.71427,-0.28572 m 70.999995,0.14286 c 0,26.03628 -21.106585,47.14286 -47.142865,47.14286 -26.03628,0 -47.14285,-21.10658 -47.14285,-47.14286 0,-26.03628 21.10657,-47.14285 47.14285,-47.14285 26.03628,0 47.142865,21.10657 47.142865,47.14285 z" />
  </g>
</svg>
